<mxfile host="app.diagrams.net" modified="2021-11-25T14:22:13.940Z" agent="5.0 (Windows NT 10.0; Win64; x64) AppleWebKit/537.36 (KHTML, like Gecko) Chrome/96.0.4664.45 Safari/537.36" etag="I6hW-WJktfmlmcAyd_K8" version="15.8.6" type="github">
  <diagram id="C5RBs43oDa-KdzZeNtuy" name="Page-1">
    <mxGraphModel dx="1422" dy="737" grid="1" gridSize="10" guides="1" tooltips="1" connect="1" arrows="1" fold="1" page="1" pageScale="1" pageWidth="827" pageHeight="1169" math="0" shadow="0">
      <root>
        <mxCell id="WIyWlLk6GJQsqaUBKTNV-0" />
        <mxCell id="WIyWlLk6GJQsqaUBKTNV-1" parent="WIyWlLk6GJQsqaUBKTNV-0" />
        <mxCell id="k-QMmXaWVTbaIe2N7R4d-2" value="" style="edgeStyle=orthogonalEdgeStyle;rounded=0;orthogonalLoop=1;jettySize=auto;html=1;" edge="1" parent="WIyWlLk6GJQsqaUBKTNV-1" source="WIyWlLk6GJQsqaUBKTNV-3" target="k-QMmXaWVTbaIe2N7R4d-1">
          <mxGeometry relative="1" as="geometry" />
        </mxCell>
        <mxCell id="WIyWlLk6GJQsqaUBKTNV-3" value="pick a word from the list of words" style="rounded=1;whiteSpace=wrap;html=1;fontSize=12;glass=0;strokeWidth=1;shadow=0;" parent="WIyWlLk6GJQsqaUBKTNV-1" vertex="1">
          <mxGeometry x="160" y="110" width="120" height="40" as="geometry" />
        </mxCell>
        <mxCell id="k-QMmXaWVTbaIe2N7R4d-4" value="" style="edgeStyle=orthogonalEdgeStyle;rounded=0;orthogonalLoop=1;jettySize=auto;html=1;" edge="1" parent="WIyWlLk6GJQsqaUBKTNV-1" source="k-QMmXaWVTbaIe2N7R4d-1" target="k-QMmXaWVTbaIe2N7R4d-3">
          <mxGeometry relative="1" as="geometry" />
        </mxCell>
        <mxCell id="k-QMmXaWVTbaIe2N7R4d-1" value="calculate the length of the word" style="whiteSpace=wrap;html=1;rounded=1;shadow=0;strokeWidth=1;glass=0;" vertex="1" parent="WIyWlLk6GJQsqaUBKTNV-1">
          <mxGeometry x="160" y="190" width="120" height="60" as="geometry" />
        </mxCell>
        <mxCell id="k-QMmXaWVTbaIe2N7R4d-6" value="" style="edgeStyle=orthogonalEdgeStyle;rounded=0;orthogonalLoop=1;jettySize=auto;html=1;" edge="1" parent="WIyWlLk6GJQsqaUBKTNV-1" source="k-QMmXaWVTbaIe2N7R4d-3" target="k-QMmXaWVTbaIe2N7R4d-5">
          <mxGeometry relative="1" as="geometry" />
        </mxCell>
        <mxCell id="k-QMmXaWVTbaIe2N7R4d-3" value="Draw blanks of the length of the word" style="whiteSpace=wrap;html=1;rounded=1;shadow=0;strokeWidth=1;glass=0;" vertex="1" parent="WIyWlLk6GJQsqaUBKTNV-1">
          <mxGeometry x="160" y="280" width="120" height="60" as="geometry" />
        </mxCell>
        <mxCell id="k-QMmXaWVTbaIe2N7R4d-8" value="" style="edgeStyle=orthogonalEdgeStyle;rounded=0;orthogonalLoop=1;jettySize=auto;html=1;" edge="1" parent="WIyWlLk6GJQsqaUBKTNV-1" source="k-QMmXaWVTbaIe2N7R4d-5" target="k-QMmXaWVTbaIe2N7R4d-7">
          <mxGeometry relative="1" as="geometry" />
        </mxCell>
        <mxCell id="k-QMmXaWVTbaIe2N7R4d-5" value="Keep a list of wrong guesses" style="rounded=1;whiteSpace=wrap;html=1;shadow=0;strokeWidth=1;glass=0;" vertex="1" parent="WIyWlLk6GJQsqaUBKTNV-1">
          <mxGeometry x="160" y="370" width="120" height="60" as="geometry" />
        </mxCell>
        <mxCell id="k-QMmXaWVTbaIe2N7R4d-10" value="" style="edgeStyle=orthogonalEdgeStyle;rounded=0;orthogonalLoop=1;jettySize=auto;html=1;" edge="1" parent="WIyWlLk6GJQsqaUBKTNV-1" source="k-QMmXaWVTbaIe2N7R4d-7" target="k-QMmXaWVTbaIe2N7R4d-11">
          <mxGeometry relative="1" as="geometry" />
        </mxCell>
        <mxCell id="k-QMmXaWVTbaIe2N7R4d-7" value="Keep a list of correct guesses" style="rounded=1;whiteSpace=wrap;html=1;shadow=0;strokeWidth=1;glass=0;" vertex="1" parent="WIyWlLk6GJQsqaUBKTNV-1">
          <mxGeometry x="160" y="460" width="120" height="60" as="geometry" />
        </mxCell>
        <mxCell id="k-QMmXaWVTbaIe2N7R4d-52" style="edgeStyle=orthogonalEdgeStyle;rounded=0;orthogonalLoop=1;jettySize=auto;html=1;exitX=0.5;exitY=1;exitDx=0;exitDy=0;" edge="1" parent="WIyWlLk6GJQsqaUBKTNV-1" source="k-QMmXaWVTbaIe2N7R4d-9" target="k-QMmXaWVTbaIe2N7R4d-18">
          <mxGeometry relative="1" as="geometry" />
        </mxCell>
        <mxCell id="k-QMmXaWVTbaIe2N7R4d-9" value="Get input from user for a letter" style="whiteSpace=wrap;html=1;rounded=1;shadow=0;strokeWidth=1;glass=0;" vertex="1" parent="WIyWlLk6GJQsqaUBKTNV-1">
          <mxGeometry x="160" y="660" width="120" height="60" as="geometry" />
        </mxCell>
        <mxCell id="k-QMmXaWVTbaIe2N7R4d-14" value="No" style="edgeStyle=orthogonalEdgeStyle;rounded=0;orthogonalLoop=1;jettySize=auto;html=1;" edge="1" parent="WIyWlLk6GJQsqaUBKTNV-1" source="k-QMmXaWVTbaIe2N7R4d-11" target="k-QMmXaWVTbaIe2N7R4d-16">
          <mxGeometry relative="1" as="geometry">
            <mxPoint x="320" y="920" as="targetPoint" />
          </mxGeometry>
        </mxCell>
        <mxCell id="k-QMmXaWVTbaIe2N7R4d-27" value="Yes" style="edgeStyle=orthogonalEdgeStyle;rounded=0;orthogonalLoop=1;jettySize=auto;html=1;" edge="1" parent="WIyWlLk6GJQsqaUBKTNV-1" source="k-QMmXaWVTbaIe2N7R4d-11" target="k-QMmXaWVTbaIe2N7R4d-9">
          <mxGeometry relative="1" as="geometry" />
        </mxCell>
        <mxCell id="k-QMmXaWVTbaIe2N7R4d-11" value="Is wrong count &amp;lt; 6" style="rhombus;whiteSpace=wrap;html=1;rounded=1;shadow=0;strokeWidth=1;glass=0;" vertex="1" parent="WIyWlLk6GJQsqaUBKTNV-1">
          <mxGeometry x="180" y="545" width="80" height="80" as="geometry" />
        </mxCell>
        <mxCell id="k-QMmXaWVTbaIe2N7R4d-16" value="Game Up" style="ellipse;whiteSpace=wrap;html=1;rounded=1;shadow=0;strokeWidth=1;glass=0;" vertex="1" parent="WIyWlLk6GJQsqaUBKTNV-1">
          <mxGeometry x="330" y="555" width="120" height="60" as="geometry" />
        </mxCell>
        <mxCell id="k-QMmXaWVTbaIe2N7R4d-24" value="No" style="edgeStyle=orthogonalEdgeStyle;rounded=0;orthogonalLoop=1;jettySize=auto;html=1;" edge="1" parent="WIyWlLk6GJQsqaUBKTNV-1" source="k-QMmXaWVTbaIe2N7R4d-18" target="k-QMmXaWVTbaIe2N7R4d-23">
          <mxGeometry relative="1" as="geometry" />
        </mxCell>
        <mxCell id="k-QMmXaWVTbaIe2N7R4d-53" value="Yes" style="edgeStyle=orthogonalEdgeStyle;rounded=0;orthogonalLoop=1;jettySize=auto;html=1;exitX=0.5;exitY=1;exitDx=0;exitDy=0;" edge="1" parent="WIyWlLk6GJQsqaUBKTNV-1" source="k-QMmXaWVTbaIe2N7R4d-18" target="k-QMmXaWVTbaIe2N7R4d-32">
          <mxGeometry relative="1" as="geometry" />
        </mxCell>
        <mxCell id="k-QMmXaWVTbaIe2N7R4d-18" value="is user input == letter in the word" style="rhombus;whiteSpace=wrap;html=1;rounded=1;shadow=0;strokeWidth=1;glass=0;" vertex="1" parent="WIyWlLk6GJQsqaUBKTNV-1">
          <mxGeometry x="180" y="750" width="80" height="80" as="geometry" />
        </mxCell>
        <mxCell id="k-QMmXaWVTbaIe2N7R4d-25" style="edgeStyle=orthogonalEdgeStyle;rounded=0;orthogonalLoop=1;jettySize=auto;html=1;entryX=0;entryY=0.5;entryDx=0;entryDy=0;" edge="1" parent="WIyWlLk6GJQsqaUBKTNV-1" source="k-QMmXaWVTbaIe2N7R4d-23" target="k-QMmXaWVTbaIe2N7R4d-11">
          <mxGeometry relative="1" as="geometry">
            <Array as="points">
              <mxPoint x="60" y="760" />
            </Array>
          </mxGeometry>
        </mxCell>
        <mxCell id="k-QMmXaWVTbaIe2N7R4d-23" value="increase wrong counter" style="whiteSpace=wrap;html=1;rounded=1;shadow=0;strokeWidth=1;glass=0;" vertex="1" parent="WIyWlLk6GJQsqaUBKTNV-1">
          <mxGeometry x="10" y="760" width="120" height="60" as="geometry" />
        </mxCell>
        <mxCell id="k-QMmXaWVTbaIe2N7R4d-36" value="" style="edgeStyle=orthogonalEdgeStyle;rounded=0;orthogonalLoop=1;jettySize=auto;html=1;" edge="1" parent="WIyWlLk6GJQsqaUBKTNV-1" source="k-QMmXaWVTbaIe2N7R4d-32" target="k-QMmXaWVTbaIe2N7R4d-35">
          <mxGeometry relative="1" as="geometry" />
        </mxCell>
        <mxCell id="k-QMmXaWVTbaIe2N7R4d-38" value="" style="edgeStyle=orthogonalEdgeStyle;rounded=0;orthogonalLoop=1;jettySize=auto;html=1;" edge="1" parent="WIyWlLk6GJQsqaUBKTNV-1" source="k-QMmXaWVTbaIe2N7R4d-35" target="k-QMmXaWVTbaIe2N7R4d-37">
          <mxGeometry relative="1" as="geometry" />
        </mxCell>
        <mxCell id="k-QMmXaWVTbaIe2N7R4d-35" value="Fill the letter in the correct blanks" style="whiteSpace=wrap;html=1;rounded=1;shadow=0;strokeWidth=1;glass=0;" vertex="1" parent="WIyWlLk6GJQsqaUBKTNV-1">
          <mxGeometry x="160" y="940" width="120" height="60" as="geometry" />
        </mxCell>
        <mxCell id="k-QMmXaWVTbaIe2N7R4d-43" value="Yes" style="edgeStyle=orthogonalEdgeStyle;rounded=0;orthogonalLoop=1;jettySize=auto;html=1;entryX=1;entryY=0.5;entryDx=0;entryDy=0;exitX=0.5;exitY=0;exitDx=0;exitDy=0;" edge="1" parent="WIyWlLk6GJQsqaUBKTNV-1" source="k-QMmXaWVTbaIe2N7R4d-44" target="k-QMmXaWVTbaIe2N7R4d-9">
          <mxGeometry relative="1" as="geometry">
            <Array as="points">
              <mxPoint x="490" y="690" />
            </Array>
          </mxGeometry>
        </mxCell>
        <mxCell id="k-QMmXaWVTbaIe2N7R4d-47" value="" style="edgeStyle=orthogonalEdgeStyle;rounded=0;orthogonalLoop=1;jettySize=auto;html=1;" edge="1" parent="WIyWlLk6GJQsqaUBKTNV-1" source="k-QMmXaWVTbaIe2N7R4d-37" target="k-QMmXaWVTbaIe2N7R4d-46">
          <mxGeometry relative="1" as="geometry" />
        </mxCell>
        <mxCell id="k-QMmXaWVTbaIe2N7R4d-37" value="Remove the letter from the available alphabets" style="whiteSpace=wrap;html=1;rounded=1;shadow=0;strokeWidth=1;glass=0;" vertex="1" parent="WIyWlLk6GJQsqaUBKTNV-1">
          <mxGeometry x="160" y="1030" width="120" height="60" as="geometry" />
        </mxCell>
        <mxCell id="k-QMmXaWVTbaIe2N7R4d-42" style="edgeStyle=orthogonalEdgeStyle;rounded=0;orthogonalLoop=1;jettySize=auto;html=1;exitX=0.5;exitY=1;exitDx=0;exitDy=0;" edge="1" parent="WIyWlLk6GJQsqaUBKTNV-1" source="k-QMmXaWVTbaIe2N7R4d-39" target="WIyWlLk6GJQsqaUBKTNV-3">
          <mxGeometry relative="1" as="geometry" />
        </mxCell>
        <mxCell id="k-QMmXaWVTbaIe2N7R4d-39" value="Keep a list of available letters" style="whiteSpace=wrap;html=1;rounded=1;shadow=0;strokeWidth=1;glass=0;" vertex="1" parent="WIyWlLk6GJQsqaUBKTNV-1">
          <mxGeometry x="160" y="30" width="120" height="60" as="geometry" />
        </mxCell>
        <mxCell id="k-QMmXaWVTbaIe2N7R4d-50" value="No" style="edgeStyle=orthogonalEdgeStyle;rounded=0;orthogonalLoop=1;jettySize=auto;html=1;" edge="1" parent="WIyWlLk6GJQsqaUBKTNV-1" source="k-QMmXaWVTbaIe2N7R4d-44" target="k-QMmXaWVTbaIe2N7R4d-49">
          <mxGeometry relative="1" as="geometry" />
        </mxCell>
        <mxCell id="k-QMmXaWVTbaIe2N7R4d-44" value="Any blanks left in the word?" style="rhombus;whiteSpace=wrap;html=1;rounded=1;shadow=0;strokeWidth=1;glass=0;" vertex="1" parent="WIyWlLk6GJQsqaUBKTNV-1">
          <mxGeometry x="450" y="810" width="80" height="80" as="geometry" />
        </mxCell>
        <mxCell id="k-QMmXaWVTbaIe2N7R4d-48" style="edgeStyle=orthogonalEdgeStyle;rounded=0;orthogonalLoop=1;jettySize=auto;html=1;" edge="1" parent="WIyWlLk6GJQsqaUBKTNV-1" source="k-QMmXaWVTbaIe2N7R4d-46" target="k-QMmXaWVTbaIe2N7R4d-44">
          <mxGeometry relative="1" as="geometry" />
        </mxCell>
        <mxCell id="k-QMmXaWVTbaIe2N7R4d-46" value="Reduce number of blanks in the word" style="whiteSpace=wrap;html=1;rounded=1;shadow=0;strokeWidth=1;glass=0;" vertex="1" parent="WIyWlLk6GJQsqaUBKTNV-1">
          <mxGeometry x="430" y="1030" width="120" height="60" as="geometry" />
        </mxCell>
        <mxCell id="k-QMmXaWVTbaIe2N7R4d-49" value="You have won" style="ellipse;whiteSpace=wrap;html=1;rounded=1;shadow=0;strokeWidth=1;glass=0;" vertex="1" parent="WIyWlLk6GJQsqaUBKTNV-1">
          <mxGeometry x="580" y="820" width="120" height="60" as="geometry" />
        </mxCell>
        <mxCell id="k-QMmXaWVTbaIe2N7R4d-32" value="Append the correct guess list" style="whiteSpace=wrap;html=1;rounded=1;shadow=0;strokeWidth=1;glass=0;" vertex="1" parent="WIyWlLk6GJQsqaUBKTNV-1">
          <mxGeometry x="160" y="860" width="120" height="60" as="geometry" />
        </mxCell>
      </root>
    </mxGraphModel>
  </diagram>
</mxfile>
